<svg id="Layer_1" height="512" viewBox="0 0 512 512" width="512" xmlns="http://www.w3.org/2000/svg" data-name="Layer 1"><path d="m491.81 365.51a10.924 10.924 0 0 0 -15.43 0l-40.61 40.54a10.893 10.893 0 0 0 15.42 15.39l40.62-40.54a10.882 10.882 0 0 0 0-15.39z" fill="#e1b7a3"/><path d="m399.27 273.15a10.912 10.912 0 0 0 -15.42 0l-40.62 40.54a10.893 10.893 0 1 0 15.42 15.39l40.62-40.53a10.876 10.876 0 0 0 0-15.4z" fill="#e1b7a3"/><path d="m373.82 283.16-20.57 20.52-67.12-66.99 20.57-20.52z" fill="#b0b5ca"/><path d="m321.15 366.41v22.26h-280.92v-22.26a17.477 17.477 0 0 1 17.49-17.46h245.94a17.477 17.477 0 0 1 17.49 17.46z" fill="#b3d1e7"/><path d="m474.84 367.05-37.53 37.46-77.11-76.96-.01-.01 37.54-37.45z" fill="#c79a83"/><path d="m287.57 113.53-.01.01-104.34 104.14 60.98 60.87 104.42-104.23z" fill="#708ed0"/><path d="m87.72 348.95h-30a17.477 17.477 0 0 0 -17.49 17.46v22.26h30v-22.26a17.477 17.477 0 0 1 17.49-17.46z" fill="#95b2c4"/><path d="m326.91 387h-292.44a17.189 17.189 0 0 0 -17.47 17.14v20.86h327v-20.86a16.868 16.868 0 0 0 -17.09-17.14z" fill="#8aafc4"/><path d="m64.47 387h-30a17.189 17.189 0 0 0 -17.47 17.14v20.86h30v-20.86a17.189 17.189 0 0 1 17.47-17.14z" fill="#6c8f9e"/><path d="m287.57 113.53-.01.01-104.34 104.14 20.018 19.982 104.322-104.122.01-.01z" fill="#627eaf"/><path d="m295.27 87.37-13.1 13.08a5.438 5.438 0 0 0 0 7.7l71.86 71.56a5.459 5.459 0 0 0 7.71-.01l13.11-13.08z" fill="#506977"/><path d="m249.6 283.93-71.78-71.64a5.468 5.468 0 0 0 -7.71 0l-13.11 13.09 79.49 79.33 13.11-13.08a5.438 5.438 0 0 0 0-7.7z" fill="#506977"/><path d="m315.27 107.37-20-20-13.1 13.08a5.438 5.438 0 0 0 0 7.7l19.63 19.544a5.42 5.42 0 0 1 .374-7.244z" fill="#40535b"/><path d="m177.82 212.29a5.468 5.468 0 0 0 -7.71 0l-13.11 13.09 20.02 19.98 13.09-13.07a5.468 5.468 0 0 1 7.71 0z" fill="#40535b"/><g fill="#284268"><path d="m92.755 276.308 30.419 12.792a6 6 0 1 0 4.652-11.061l-30.419-12.792a6 6 0 1 0 -4.652 11.061z"/><path d="m137.889 254.427a6 6 0 1 0 11.007-4.78l-11.813-27.2a6 6 0 1 0 -11.006 4.78z"/><path d="m87.917 333.171a5.985 5.985 0 0 0 2.139-.4l27.7-10.579a6 6 0 0 0 -4.282-11.21l-27.7 10.579a6 6 0 0 0 2.142 11.607z"/><path d="m475.159 358.89-69.259-69.123a16.837 16.837 0 0 0 -2.392-20.859 16.939 16.939 0 0 0 -23.9 0l-5.786 5.774-58.631-58.516 33.437-33.366 1.17 1.165a11.479 11.479 0 0 0 16.18-.009l13.113-13.088a6 6 0 0 0 0-8.5l-79.586-79.248a6 6 0 0 0 -8.472 0l-13.105 13.08a11.435 11.435 0 0 0 .01 16.2l1.135 1.13-95.856 95.67-1.16-1.158a11.475 11.475 0 0 0 -16.188 0l-13.109 13.089a6 6 0 0 0 0 8.493l79.489 79.336a6 6 0 0 0 8.477 0l13.11-13.084a11.435 11.435 0 0 0 0-16.189l-1.144-1.141 33.441-33.376 58.63 58.516-5.769 5.759a16.886 16.886 0 0 0 20.885 26.26l69.257 69.123a16.895 16.895 0 0 0 26.292 20.86l40.616-40.538a16.868 16.868 0 0 0 0-23.886 16.942 16.942 0 0 0 -20.885-2.374zm-179.882-263.047 71.077 70.778-8.471 8.455-71.078-70.776zm-58.789 200.394-71-70.86 8.471-8.455 71 70.86zm7.711-26.168-52.489-52.388 95.866-95.681 52.549 52.328zm50.427-33.376 12.074-12.05 58.63 58.516-12.073 12.051zm59.79 88.145a4.922 4.922 0 0 1 -6.946 0 4.871 4.871 0 0 1 0-6.9l40.617-40.538a4.921 4.921 0 0 1 6.945 0 4.868 4.868 0 0 1 0 6.9zm14.274 2.708 29.039-28.983 68.619 68.487-29.039 28.982zm118.877 49.111-40.616 40.537a4.924 4.924 0 0 1 -6.946 0 4.871 4.871 0 0 1 0-6.9l40.617-40.538a4.924 4.924 0 0 1 6.945 0 4.87 4.87 0 0 1 0 6.9z"/><path d="m293.041 146.416a6 6 0 0 0 -8.485 0l-4.884 4.884a6 6 0 0 0 8.485 8.486l4.884-4.885a6 6 0 0 0 0-8.485z"/><path d="m263.225 167.747-43.572 43.572a6 6 0 1 0 8.485 8.485l43.572-43.572a6 6 0 0 0 -8.485-8.485z"/><path d="m17 431h327.384c3.314 0 5.616-3.058 5.616-6.371v-20.486a23.191 23.191 0 0 0 -23-23.467v-14.265a23.332 23.332 0 0 0 -23.338-23.411h-245.94a23.661 23.661 0 0 0 -23.722 23.411v14.265a23.191 23.191 0 0 0 -23 23.467v20.486a6.328 6.328 0 0 0 6 6.371zm29-64.589a11.649 11.649 0 0 1 11.722-11.411h245.94a11.318 11.318 0 0 1 11.338 11.411v14.589h-269zm-23 37.732a11.209 11.209 0 0 1 11.473-11.143h292.438a10.885 10.885 0 0 1 11.089 11.143v14.857h-315z"/></g></svg>