<?xml version="1.0" encoding="iso-8859-1"?>
<!-- Generator: Adobe Illustrator 19.0.0, SVG Export Plug-In . SVG Version: 6.00 Build 0)  -->
<svg version="1.1" id="Layer_1" xmlns="http://www.w3.org/2000/svg" xmlns:xlink="http://www.w3.org/1999/xlink" x="0px" y="0px"
	 viewBox="0 0 512.001 512.001" style="enable-background:new 0 0 512.001 512.001;" xml:space="preserve">
<path style="fill:#FED9A8;" d="M155.067,192.78h8.389v5.254c0,28.517,21.117,60.92,47.252,76.841l-0.003,26.353
	c0,2.474-1.613,4.66-3.978,5.389l-50.378,15.51l0.109,0.116c27.371,28.737,63.451,43.106,99.53,43.106s72.16-14.369,99.53-43.106
	l0.113-0.119l-50.386-15.506c-2.364-0.73-3.977-2.915-3.977-5.389l-0.002-26.566c26.149-15.928,47.255-48.301,47.255-76.83v-5.051
	h8.389c7.163,0,12.969-5.806,12.969-12.969v-25.401c0-7.162-5.806-12.969-12.969-12.969h-8.389H163.455h-8.389
	c-7.162,0-12.969,5.806-12.969,12.969v25.401C142.098,186.974,147.904,192.78,155.067,192.78z"/>
<g>
	<path style="fill:#EABE92;" d="M355.518,322.243l0.113-0.119l-50.386-15.506c-0.886-0.274-1.667-0.752-2.297-1.374
		c-1.05-1.036-1.68-2.469-1.68-4.016l-0.002-26.566c-6.267,3.817-12.82,6.7-19.446,8.348l-1.014,0.252
		c-3.973,0.988-7.438,1.795-10.585,2.427v78.905C301.418,361.308,331.752,347.195,355.518,322.243z"/>
	<path style="fill:#EABE92;" d="M348.521,141.442H317.49v56.389c0,35.366-32.429,76.656-66.701,85.178l-1.014,0.252
		c-3.627,0.902-6.83,1.653-9.755,2.258c14.74,3.075,22.354,2.326,40.787-2.258l1.014-0.252c6.643-1.652,13.212-4.546,19.494-8.378
		c1.574-0.96,3.13-1.982,4.664-3.057c0.049-0.034,0.098-0.066,0.146-0.101c0.644-0.453,1.282-0.922,1.918-1.395
		c0.228-0.169,0.456-0.337,0.682-0.508c0.607-0.459,1.209-0.927,1.808-1.403c0.231-0.184,0.461-0.37,0.691-0.557
		c0.61-0.494,1.219-0.991,1.82-1.502c0.11-0.094,0.219-0.191,0.329-0.286c1.997-1.712,3.94-3.516,5.824-5.397
		c0.241-0.24,0.482-0.479,0.721-0.722c0.511-0.52,1.016-1.047,1.518-1.579c0.263-0.278,0.523-0.559,0.783-0.841
		c0.491-0.531,0.98-1.064,1.46-1.606c0.236-0.265,0.466-0.536,0.698-0.803c1.022-1.174,2.022-2.369,2.995-3.586
		c0.117-0.147,0.239-0.29,0.355-0.438c0.414-0.524,0.817-1.057,1.222-1.588c0.286-0.375,0.573-0.75,0.855-1.129
		c0.378-0.509,0.749-1.023,1.118-1.538c0.298-0.416,0.592-0.834,0.884-1.254c0.348-0.501,0.695-1.004,1.035-1.51
		c0.311-0.464,0.614-0.933,0.917-1.401c0.308-0.475,0.621-0.948,0.921-1.427c0.553-0.883,1.093-1.773,1.618-2.668
		c0.252-0.43,0.492-0.865,0.738-1.298c0.315-0.556,0.63-1.111,0.934-1.671c0.246-0.453,0.486-0.909,0.724-1.365
		c0.292-0.558,0.579-1.116,0.86-1.677c0.222-0.445,0.444-0.889,0.659-1.335c0.3-0.623,0.589-1.248,0.875-1.874
		c0.175-0.384,0.356-0.767,0.526-1.152c0.432-0.981,0.848-1.965,1.243-2.953c0.118-0.295,0.225-0.592,0.34-0.887
		c0.286-0.737,0.566-1.475,0.831-2.214c0.14-0.391,0.272-0.782,0.406-1.173c0.226-0.66,0.445-1.322,0.653-1.983
		c0.125-0.396,0.248-0.791,0.366-1.187c0.211-0.706,0.408-1.412,0.598-2.118c0.09-0.335,0.186-0.671,0.272-1.006
		c0.263-1.029,0.507-2.057,0.724-3.085c0.032-0.152,0.056-0.303,0.087-0.455c0.182-0.887,0.347-1.773,0.494-2.658
		c0.058-0.347,0.106-0.692,0.158-1.039c0.105-0.702,0.202-1.403,0.284-2.103c0.044-0.37,0.085-0.739,0.122-1.108
		c0.072-0.712,0.129-1.422,0.177-2.131c0.022-0.326,0.049-0.652,0.066-0.977c0.052-1.018,0.086-2.033,0.086-3.042
		c0-0.004,0-0.008,0-0.012v-5.051l0,0L348.521,141.442L348.521,141.442z"/>
</g>
<path style="fill:#FFA227;" d="M368.91,119.89h-4.822v-10.537c0-0.843-0.011-1.683-0.032-2.52
	c-1.29-50.84-42.517-90.989-91.921-90.989h-32.294c-49.404,0-90.63,40.15-91.921,90.989c-0.021,0.837-0.032,1.678-0.032,2.52v10.537
	h-4.822c-4.476,0-8.104,3.735-8.104,8.343v10.83c0,4.608,3.629,8.343,8.105,8.343H368.91c4.476,0,8.104-3.735,8.104-8.343v-10.831
	C377.014,123.626,373.385,119.89,368.91,119.89z"/>
<path style="fill:#F78B0B;" d="M368.91,119.89h-4.822v-10.537c0-0.843-0.011-1.683-0.032-2.52
	c-1.29-50.84-42.517-90.989-91.921-90.989h-31.121c49.404,0,90.63,40.15,91.921,90.989c0.021,0.837,0.032,1.678,0.032,2.52v10.537
	h4.822c4.476,0,8.104,3.735,8.104,8.343v10.831c0,4.608-3.628,8.343-8.104,8.343h31.121c4.476,0,8.104-3.735,8.104-8.343v-10.831
	C377.014,123.625,373.386,119.89,368.91,119.89z"/>
<path style="fill:#FCD78D;" d="M260.566,71.492h-9.149c-10.051,0-18.199-8.148-18.199-18.199v-32.71
	c0-10.051,8.148-18.199,18.199-18.199h9.149c10.051,0,18.199,8.148,18.199,18.199v32.71
	C278.765,63.344,270.617,71.492,260.566,71.492z"/>
<path style="fill:#FFC145;" d="M260.58,2.384h-9.177c-1.257,0-2.484,0.128-3.669,0.371V71.12c1.185,0.243,2.412,0.371,3.669,0.371
	h9.177c10.043,0,18.185-8.154,18.185-18.213V20.597C278.765,10.538,270.623,2.384,260.58,2.384z"/>
<path style="fill:#FF395A;" d="M456.459,350.618l-104.532-36.944c-4.855-1.716-10.192-1.426-14.833,0.807l-81.11,39.013
	l-81.11-39.013c-4.641-2.232-9.978-2.522-14.833-0.807L55.51,350.618c-28.844,10.194-48.824,36.651-50.768,67.223L0.034,491.88
	c-0.611,9.607,7.004,17.736,16.616,17.736h238.246h2.175h238.246c9.612,0,17.227-8.128,16.616-17.736l-4.708-74.04
	C505.283,387.269,485.302,360.812,456.459,350.618z"/>
<path style="fill:#D81942;" d="M419.426,337.53l37.033,13.088c28.843,10.194,48.824,36.651,50.768,67.223l4.708,74.04
	c0.611,9.607-7.004,17.735-16.616,17.735h-75.892v-86.043V337.53H419.426z"/>
<path style="fill:#BC0C3A;" d="M511.966,491.88l-4.708-74.04c-1.944-30.572-21.924-57.029-50.768-67.223l-5.135-1.815
	c13.969,14.874,23.035,40.119,24.174,58.039l6.535,102.773h13.285C504.961,509.616,512.576,501.488,511.966,491.88z"/>
<path style="fill:#D81942;" d="M92.543,337.53L55.51,350.618c-28.843,10.194-48.824,36.651-50.768,67.223l-4.708,74.04
	c-0.611,9.607,7.004,17.735,16.616,17.735h75.892v-86.043V337.53H92.543z"/>
<path style="fill:#FFCC5A;" d="M372.186,459.993h-57.601c-3.867,0-7.002-3.135-7.002-7.002v-22.415c0-3.867,3.135-7.002,7.002-7.002
	h57.601c3.867,0,7.002,3.135,7.002,7.002v22.415C379.189,456.858,376.054,459.993,372.186,459.993z"/>
<path style="fill:#FFD364;" d="M374.442,442.617v-10.944c0-1.617-1.315-2.932-2.932-2.932h-56.249c-1.617,0-2.932,1.315-2.932,2.932
	v10.944H374.442z"/>
<g>
	<path style="fill:#D81942;" d="M218.529,378.057l37.455-24.563l-81.11-39.013c-4.641-2.232-9.978-2.522-14.833-0.807
		l-32.676,11.548l68.161,52.012C202.246,382.363,211.462,382.692,218.529,378.057z"/>
	<path style="fill:#D81942;" d="M293.437,378.057l-37.455-24.563l81.11-39.013c4.641-2.232,9.978-2.522,14.833-0.807l32.676,11.548
		l-68.161,52.012C309.721,382.363,300.504,382.692,293.437,378.057z"/>
</g>
<ellipse transform="matrix(0.3784 -0.9256 0.9256 0.3784 49.7046 224.4868)" style="fill:#FFA233;" cx="192" cy="75.234" rx="23.635" ry="17.803"/>
<g>
</g>
<g>
</g>
<g>
</g>
<g>
</g>
<g>
</g>
<g>
</g>
<g>
</g>
<g>
</g>
<g>
</g>
<g>
</g>
<g>
</g>
<g>
</g>
<g>
</g>
<g>
</g>
<g>
</g>
</svg>
