<svg id="Layer_1" height="512" viewBox="0 0 512 512" width="512" xmlns="http://www.w3.org/2000/svg" data-name="Layer 1"><path d="m471.01 65h-431.04a14.5 14.5 0 0 0 0 29h201.879l-.409 310h29.56v-310h200.01a14.355 14.355 0 0 0 10.15-4.255 14.609 14.609 0 0 0 4.2-10.267 14.46 14.46 0 0 0 -14.35-14.478z" fill="#6d6d93"/><path d="m256 41.2a38.285 38.285 0 1 1 -38.28 38.28 38.282 38.282 0 0 1 38.28-38.28z" fill="#4689d3"/><circle cx="256" cy="79.48" fill="#5fa8ed" r="14.93"/><path d="m484.96 274.48v.01c0 44.46-35.72 69.43-78.14 69.43s-77.58-24.41-77.58-69.43v-.01c.17.01.34.01.51.01h154.71c.17 0 .34 0 .5-.01z" fill="#6d7486"/><path d="m182.76 274.48v.01c0 44.46-35.72 69.43-78.14 69.43s-77.58-24.41-77.58-69.43v-.01c.16.01.33.01.5.01h154.71c.17 0 .34 0 .51-.01z" fill="#6d7486"/><path d="m366 94h82v25h-82z" fill="#56568c"/><path d="m64 94h82v25h-82z" fill="#56568c"/><path d="m484.46 254h-154.71a10.9 10.9 0 0 0 -10.55 10.85 10.375 10.375 0 0 0 10.04 10.335c.17.01.34-.185.51-.185h154.71c.17 0 .34.245.5.235a10.393 10.393 0 0 0 6.95-2.958 10.805 10.805 0 0 0 3.09-7.588 10.663 10.663 0 0 0 -10.54-10.689z" fill="#b0b5ca"/><path d="m326.43 400h-140.86a31.34 31.34 0 0 0 -31.57 31.17v8.35l.085.48h203.83l.085-.48v-8.35a31.34 31.34 0 0 0 -31.57-31.17z" fill="#f3ce7d"/><path d="m57.04 274.49h-29.5c-.17 0-.34 0-.5-.01v.01c0 45.02 35.16 69.43 77.58 69.43a103.038 103.038 0 0 0 14.929-1.079c-35.362-5.157-62.509-28.795-62.509-68.351z" fill="#5a606d"/><path d="m184 431.17a31.34 31.34 0 0 1 31.57-31.17h-30a31.34 31.34 0 0 0 -31.57 31.17v8.35l.085.48h30l-.085-.48z" fill="#d8b571"/><path d="m182.25 254h-154.71a10.9 10.9 0 0 0 -10.54 10.85 10.368 10.368 0 0 0 10.04 10.335c.16.01.33-.185.5-.185h154.71c.17 0 .34.245.51.235a10.393 10.393 0 0 0 6.95-2.958 10.805 10.805 0 0 0 3.09-7.588 10.665 10.665 0 0 0 -10.55-10.689z" fill="#b0b5ca"/><path d="m47 264.85a10.9 10.9 0 0 1 10.54-10.85h-30a10.9 10.9 0 0 0 -10.54 10.85 10.368 10.368 0 0 0 10.04 10.335c.16.01.33-.185.5-.185h28a10.312 10.312 0 0 1 -8.54-10.15z" fill="#9ca2b5"/><path d="m384.26 470.8h-256.52a31.373 31.373 0 0 1 26.36-30.86 31.7 31.7 0 0 1 5.19-.42h193.42a31.7 31.7 0 0 1 5.19.42 31.373 31.373 0 0 1 26.36 30.86z" fill="#c6a76a"/><path d="m184.1 439.94a31.7 31.7 0 0 1 5.19-.42h-30a31.7 31.7 0 0 0 -5.19.42 31.373 31.373 0 0 0 -26.36 30.86h30a31.373 31.373 0 0 1 26.36-30.86z" fill="#a58a59"/><g fill="#284268"><path d="m484.458 247h-7.343l-50.706-122h21.606a5.687 5.687 0 0 0 5.985-5.635v-19.365h17.011a20.5 20.5 0 0 0 0-41h-175.659a44.249 44.249 0 0 0 -78.7 0h-176.686a20.5 20.5 0 0 0 0 41h18.034v19.365a5.687 5.687 0 0 0 5.985 5.635h21.639l-50.738 122h-7.344a16.723 16.723 0 0 0 -6.37 32.109c1.106 21.058 9.656 38.839 24.912 51.537 14.892 12.394 35.679 19.245 58.535 19.245 22.814 0 43.7-6.885 58.8-19.409 15.42-12.784 24.066-30.437 25.195-51.277a16.78 16.78 0 0 0 -6.365-32.2h-7.342l-50.707-122.005h21.607c3.314 0 6.189-2.322 6.189-5.635v-19.365h64.724a45.384 45.384 0 0 0 19.13 19.008l-.406 274.992h-49.872a37.384 37.384 0 0 0 -37.572 37.169v4.069a37.761 37.761 0 0 0 -26.272 35.662 6.1 6.1 0 0 0 6.013 6.1h256.518a6.1 6.1 0 0 0 6.013-6.1 37.761 37.761 0 0 0 -26.272-35.662v-4.069a37.384 37.384 0 0 0 -37.572-37.169h-49.869l.006-275.207a44.619 44.619 0 0 0 18.711-18.793h64.724v19.365c0 3.313 2.875 5.635 6.189 5.635h21.64l-50.739 122h-7.343a16.724 16.724 0 0 0 -6.371 32.109c1.107 21.058 9.657 38.839 24.913 51.537 14.891 12.394 35.679 19.245 58.534 19.245 22.814 0 43.7-6.885 58.8-19.409 15.42-12.784 24.066-30.437 25.2-51.277a16.78 16.78 0 0 0 -6.365-32.2zm-379.839 90.672c-20.057 0-38.118-5.962-50.858-16.565-12.135-10.101-19.131-24.107-20.468-41.107h143.19c-2.669 30-25.192 57.672-71.864 57.672zm77.634-78.672a4.5 4.5 0 1 1 0 9h-154.711a4.5 4.5 0 1 1 0-9zm-20.336-12h-114.036l50.738-122h12.591zm-21.917-134h-70v-13h70zm-100.034-25a8.5 8.5 0 0 1 0-17h172.534a45.559 45.559 0 0 0 .026 17zm337.566 377h-243.064a25.353 25.353 0 0 1 24.817-19h193.43a25.353 25.353 0 0 1 24.817 19zm-51.1-59a25.372 25.372 0 0 1 25.568 25.169v2.831h-192v-2.831a25.372 25.372 0 0 1 25.572-25.169zm-78.984-12 .4-270.936a45.973 45.973 0 0 0 16.717-.059l-.006 271zm8.552-282.227a32.289 32.289 0 1 1 32.285-32.289 32.323 32.323 0 0 1 -32.285 32.289zm43.5-40.773h171.511a8.5 8.5 0 0 1 0 17h-171.539a45.559 45.559 0 0 0 .026-17zm72.5 42v-13h70v13zm28.824 12h12.591l50.706 122h-114.036zm6 212.672c-20.056 0-38.117-5.962-50.857-16.565-12.136-10.101-19.132-24.107-20.467-41.107h143.19c-2.671 30-25.19 57.672-71.867 57.672zm77.634-69.672h-154.711a4.5 4.5 0 1 1 0-9h154.711a4.5 4.5 0 1 1 0 9z"/><path d="m256 58.555a20.93 20.93 0 1 0 20.928 20.929 20.952 20.952 0 0 0 -20.928-20.929zm0 29.859a8.93 8.93 0 1 1 8.928-8.93 8.939 8.939 0 0 1 -8.928 8.93z"/><path d="m222 160.37a6 6 0 0 0 6-6v-6.908a6 6 0 0 0 -12 0v6.908a6 6 0 0 0 6 6z"/><path d="m216 267.608a6 6 0 0 0 12 0v-89.979a6 6 0 0 0 -12 0z"/></g></svg>